<?xml version="1.0" encoding="UTF-8"?> <svg xmlns="http://www.w3.org/2000/svg" viewBox="0 0 92.41107 92.41077"><defs><style>.cls-1{fill:#fff;}</style></defs><title>icon8</title><g id="Layer_2" data-name="Layer 2"><g id="Layer_1-2" data-name="Layer 1"><path class="cls-1" d="M92.40869,1.50062a1.41716,1.41716,0,0,0-1.499-1.49805c-18.36231,1.09668-38.7002,9.623-54.13379,25.18848a66.94065,66.94065,0,0,0-10.01758-.93653c-5.39258-.0166-9.7666,1.22754-13.5498,4.36231-3.78223,3.124-6.96582,7.94726-10.59668,15.05176a1.4163,1.4163,0,0,0,1.26367,2.06152,1.43492,1.43492,0,0,0,.34961-.044c3.375-.86328,6.125-1.90234,8.61719-2.69531A23.02709,23.02709,0,0,1,19.978,41.6471a17.07387,17.07387,0,0,1,3.82422.4502q-.90821,1.55987-1.75977,3.1748a1.41521,1.41521,0,0,0,.25293,1.66016C27.26318,51.901,40.51025,65.1471,45.47705,70.11488a1.41858,1.41858,0,0,0,1.66113.25293q1.59522-.8379,3.13379-1.73633a17.03863,17.03863,0,0,1,.43164,3.74023,23.03341,23.03341,0,0,1-1.34375,7.13672c-.793,2.49219-1.832,5.24219-2.69531,8.61719a1.41823,1.41823,0,0,0,2.01758,1.61426c7.10547-3.632,11.92773-6.81556,15.05176-10.59876,3.13379-3.7821,4.37793-8.1571,4.3623-13.54871a66.84005,66.84005,0,0,0-.91992-9.91406C82.76807,40.23988,91.31006,19.87952,92.40869,1.50062ZM19.978,38.81312A25.79156,25.79156,0,0,0,11.981,40.28968c-1.69629.542-3.4209,1.1582-5.30664,1.749,2.91992-5.34277,5.55273-8.95117,8.33593-11.23339,3.26172-2.665,6.73633-3.69922,11.748-3.71485a56.89908,56.89908,0,0,1,7.625.61316,83.95059,83.95059,0,0,0-9.043,11.85559A20.39525,20.39525,0,0,0,19.978,38.81312ZM50.03369,65.484q-1.61718.97559-3.293,1.88476C41.56885,62.19788,30.2124,50.84132,25.0415,45.67042q1.002-1.856,2.08789-3.63282a1.41389,1.41389,0,0,0,.08594-.13854C41.813,18.0846,67.11572,4.80531,89.46338,2.94593,87.61377,25.192,74.44482,50.36585,50.83447,64.99281c-.043.00976-.08789.02148-.13086.03515A1.40249,1.40249,0,0,0,50.03369,65.484ZM61.54541,77.34046c-2.28223,2.78223-5.89062,5.416-11.23242,8.33594.58984-1.88574,1.206-3.61035,1.748-5.30664a25.79805,25.79805,0,0,0,1.47656-7.99805,20.36033,20.36033,0,0,0-.72461-5.27734A83.97249,83.97249,0,0,0,64.66064,58.068a56.55223,56.55223,0,0,1,.60059,7.52441C65.24463,70.60316,64.20947,74.07862,61.54541,77.34046Z"></path><path class="cls-1" d="M64.15674,37.86488h.00781a9.5783,9.5783,0,0,0,6.791-2.81556l-1.002-1.00183,1.00293,1.00183a9.61528,9.61528,0,1,0-6.7998,2.81556Zm-4.791-14.40528a6.77683,6.77683,0,1,1-1.98633,4.78125A6.74635,6.74635,0,0,1,59.36572,23.4596Z"></path><path class="cls-1" d="M32.25439,42.88721a1.41726,1.41726,0,1,0,1.00293.41517A1.42237,1.42237,0,0,0,32.25439,42.88721Z"></path><path class="cls-1" d="M36.21729,46.84925a1.41869,1.41869,0,1,0,1.002.415A1.427,1.427,0,0,0,36.21729,46.84925Z"></path><path class="cls-1" d="M44.14307,54.775a1.41871,1.41871,0,1,0,1.002.415A1.427,1.427,0,0,0,44.14307,54.775Z"></path><path class="cls-1" d="M48.106,58.7389a1.4185,1.4185,0,1,0,1.00195.41492A1.42321,1.42321,0,0,0,48.106,58.7389Z"></path><path class="cls-1" d="M40.18018,50.812a1.41722,1.41722,0,1,0,1.00293.41516A1.42709,1.42709,0,0,0,40.18018,50.812Z"></path><path class="cls-1" d="M7.72119,76.59241,27.33057,56.98109a1.417,1.417,0,0,0-2.00391-2.00391L5.71631,74.58753a1.41766,1.41766,0,0,0,2.00488,2.00488Z"></path><path class="cls-1" d="M32.38135,60.028a1.41813,1.41813,0,0,0-2.00391,0L.41455,89.99085a1.41762,1.41762,0,0,0,2.00488,2.00476L32.38135,62.03272A1.41561,1.41561,0,0,0,32.38135,60.028Z"></path><path class="cls-1" d="M35.42822,65.07972l-8.12109,8.12109A1.41732,1.41732,0,1,0,29.311,75.2057l8.12109-8.1211a1.41732,1.41732,0,1,0-2.00391-2.00488Z"></path></g></g></svg> 